<?xml version="1.0" encoding="utf-8"?>
<!-- Generator: Adobe Illustrator 22.0.0, SVG Export Plug-In . SVG Version: 6.00 Build 0)  -->
<svg version="1.1" id="Layer_1" xmlns="http://www.w3.org/2000/svg" xmlns:xlink="http://www.w3.org/1999/xlink" x="0px" y="0px"
	 viewBox="0 0 595.3 207.7" style="enable-background:new 0 0 595.3 207.7;" xml:space="preserve">
<style type="text/css">
	.st0{opacity:0.73;fill-rule:evenodd;clip-rule:evenodd;}
	.st1{fill:#FFFFFF;}
	.st2{font-family:'Futura-Medium';}
	.st3{font-size:24.6205px;}
	.st4{fill-rule:evenodd;clip-rule:evenodd;fill:#FFFFFF;}
</style>
<rect x="0.4" y="47.7" class="st0" width="595.3" height="127.6"/>
<text transform="matrix(1 0 0 1 200.417 88.4409)" class="st1 st2 st3">BIENVENIDOS A</text>
<path class="st4" d="M114.7,141.9c-2,0.9-5.3,1.4-8.4,1.4c-8.8,0-14-5.6-14-14.4c0-9.8,6.1-14.6,14-14.6c3.6,0,6.4,0.8,8.4,1.6
	l2.1-7.8c-1.8-1-5.7-1.9-10.8-1.9c-13.3,0-24,8.3-24,23.3c0,12.5,7.8,22.1,23,22.1c5.3,0,9.5-1.1,11.2-1.9L114.7,141.9 M144.7,139.6
	l3.4,11.3h10.8l-13.7-44h-13l-13.4,44H129l3.1-11.3H144.7z M133.6,132.1l2.6-9.3c0.7-2.5,1.4-5.9,2-8.5c0.8,2.6,1.6,5.9,2.3,8.5
	l2.7,9.3H133.6z M161.5,148.8c2.5,1.4,7.4,2.7,12.5,2.7c12.1,0,17.7-6.3,17.7-13.6c0-6.2-3.6-10.2-11.4-13.1
	c-5.7-2.2-8.2-3.4-8.2-6.2c0-2.2,2.1-4.2,6.4-4.2c4.2,0,7.4,1.2,9.1,2.1l2.2-8c-2.6-1.2-6.2-2.2-11.2-2.2
	c-10.3,0-16.6,5.7-16.6,13.2c0,6.4,4.8,10.4,12.1,13.1c5.3,1.8,7.4,3.4,7.4,6.1c0,2.9-2.4,4.8-7,4.8c-4.2,0-8.4-1.4-11-2.7
	L161.5,148.8z M218.5,139.6l3.4,11.3h10.8l-13.7-44h-13.1l-13.4,44h10.3l3.1-11.3H218.5z M207.4,132.1l2.6-9.3
	c0.7-2.5,1.4-5.9,2-8.5c0.8,2.6,1.6,5.9,2.4,8.5l2.7,9.3H207.4z M248.7,150.7c2.4,0.3,6.1,0.6,11.3,0.6c8.6,0,15.7-1.8,20.4-5.7
	c4.2-3.6,7.2-9.4,7.2-17.8c0-7.8-2.9-13.2-7.4-16.6c-4.2-3.1-9.7-4.7-18.1-4.7c-5,0-9.7,0.4-13.4,1V150.7z M258.7,114.6
	c0.9-0.2,2.3-0.4,4.5-0.4c8.6,0,14,4.8,14,14c0,10.5-5.9,15.5-15,15.4c-1.2,0-2.6,0-3.5-0.2V114.6z M318.2,124.2H302V115h17.2v-8.2
	h-27.1v44h28v-8.1H302v-10.4h16.2V124.2z M326.1,150.9h27.4v-8.3h-17.5v-35.6h-9.9V150.9z M377.5,150.9v-13.2
	c0-7.2-0.1-13.4-0.5-19.3c2.4,5.2,5.3,10.8,7.9,15.5l9.4,17h10.4v-44h-9.1v12.8c0,6.7,0.2,12.6,0.8,18.4c-2.1-5-4.7-10.4-7.3-15.1
	l-9.1-16.1h-11.6v44H377.5z M412,150.9h9.9v-44H412V150.9z M438.8,150.9v-13.2c0-7.2-0.1-13.4-0.5-19.3c2.3,5.2,5.3,10.8,7.9,15.5
	l9.4,17h10.4v-44H457v12.8c0,6.7,0.2,12.6,0.8,18.4c-2.2-5-4.7-10.4-7.3-15.1l-9.1-16.1h-11.6v44H438.8z M443.5,105.7
	c0.1-1.9,0.7-2.8,1.6-2.8c0.9,0,1.6,0.5,2.8,1.2c1.2,0.7,2.5,1.2,4.2,1.2c3.5,0,5.3-2.3,5.2-8.2h-4.4c-0.3,2.2-0.6,2.8-1.8,2.8
	c-0.8,0-1.8-0.6-2.8-1.2c-1.2-0.7-2.5-1.3-4.2-1.3c-3.1,0-5.2,2.8-5,8.3H443.5z M493.3,106.1c-12.9,0-21.4,9.9-21.4,23
	c0,12.6,7.7,22.5,20.7,22.5c12.9,0,21.6-8.7,21.6-23.2C514.2,116.2,506.8,106.1,493.3,106.1z M493.1,114c6.9,0,10.6,6.8,10.6,14.8
	c0,8.6-3.8,15-10.6,15c-6.7,0-10.7-6.1-10.7-14.8C482.4,120.4,486.3,114,493.1,114z"/>
</svg>
