<?xml version="1.0" encoding="utf-8"?>
<!-- Generator: Adobe Illustrator 22.0.0, SVG Export Plug-In . SVG Version: 6.00 Build 0)  -->
<svg version="1.1" id="Layer_1" xmlns="http://www.w3.org/2000/svg" xmlns:xlink="http://www.w3.org/1999/xlink" x="0px" y="0px"
	 viewBox="0 0 2406.6 600" style="enable-background:new 0 0 2406.6 600;" xml:space="preserve">
<style type="text/css">
	.st0{fill:#2CA9E1;}
	.st1{fill:#BCD446;}
	.st2{fill:#F4964D;}
</style>
<g>
	<path class="st0" d="M838.6,276.5c-7.9,3.3-20.7,5.6-32.7,5.6c-34.5,0-55-21.8-55-56.3c0-38.4,24.1-57.1,54.7-57.1
		c14.2,0,25.1,3.1,32.7,6.4l8.2-30.7c-7-3.8-22.3-7.6-42.5-7.6c-52.2,0-94.1,32.4-94.1,91.2c0,49.2,30.7,86.5,90.3,86.5
		c20.7,0,37.2-4.2,44-7.5L838.6,276.5 M956.3,267.6l13.3,44.2h42.2l-53.7-172.4H907l-52.4,172.4h40.1l12.3-44.2H956.3z M912.6,238.4
		l10.3-36.6c2.8-10,5.3-23,7.9-33.3c3.1,10.3,6.2,23,9.2,33.3l10.8,36.6L912.6,238.4L912.6,238.4z M1022.2,303.6
		c9.8,5.3,29.1,10.8,48.9,10.8c47.3,0,69.4-24.6,69.4-53.5c0-24.3-14.2-40.1-44.5-51.4c-22.5-8.4-31.9-13.3-31.9-24.3
		c0-8.7,8.1-16.6,25-16.6c16.6,0,29.1,4.8,35.8,8.1l8.7-31.2c-10.3-4.8-24.3-8.6-44-8.6c-40.4,0-65.3,22.3-65.3,51.6
		c0,25,18.9,41,47.6,51.2c20.7,7.2,28.9,13.3,28.9,24c0,11.3-9.5,18.7-27.4,18.7c-16.6,0-33-5.4-43.2-10.8L1022.2,303.6z
		 M1245.7,267.6l13.3,44.2h42.2l-53.7-172.4h-51.2l-52.4,172.4h40.2l12.2-44.2H1245.7z M1201.9,238.4l10.2-36.6
		c2.9-10,5.4-23,7.9-33.3c3.2,10.3,6.2,23,9.3,33.3l10.7,36.6L1201.9,238.4L1201.9,238.4z M1364.1,311.1c9.4,1.2,24.1,2.6,44.2,2.6
		c33.8,0,61.7-7.2,79.9-22.3c16.3-14.1,28.4-36.8,28.4-69.9c0-30.4-11.3-51.6-29.3-65c-16.4-12.3-37.9-18.4-70.8-18.4
		c-19.5,0-38.2,1.5-52.4,3.8V311.1z M1403,169.6c3.3-0.7,9.2-1.5,17.7-1.5c33.8,0,54.8,19,54.8,54.7c0,41.3-23.3,60.7-58.8,60.4
		c-4.6,0-10.3,0-13.7-0.7L1403,169.6L1403,169.6z M1636.4,207.1h-63.4v-35.7h67.2v-32H1534v172.4h109.8v-31.9h-70.9v-41h63.4V207.1z
		 M1667.5,311.8h107.5v-32.7h-68.6V139.4h-38.8v172.4H1667.5z M1868.7,311.8v-51.9c0-28.1-0.5-52.4-1.7-75.4
		c9.2,20.2,20.7,42.4,31,60.9l36.7,66.5h41V139.4h-35.8v50.1c0,26.2,0.8,49.5,3.1,72.3c-8.4-19.5-18.4-41-28.6-59.1l-35.8-63.2
		h-45.6v172.4H1868.7z M2003.9,311.8h38.9V139.4h-38.9V311.8z M2109.2,311.8v-51.9c0-28.1-0.5-52.4-1.8-75.4
		c9.1,20.2,20.7,42.4,30.9,60.9l36.8,66.5h41V139.4h-35.8v50.1c0,26.2,0.7,49.5,3.1,72.3c-8.5-19.5-18.5-41-28.6-59.1l-35.8-63.2
		h-45.6v172.4H2109.2z M2127.3,134.8c0.5-7.4,2.9-11,6.2-11c3.6,0,6.4,2.1,11,4.5c4.6,2.6,10,4.8,16.6,4.8c13.5,0,20.7-8.9,20.2-32
		h-17.4c-1,8.7-2.6,11-7,11c-3.2,0-7.1-2.3-11.2-4.8c-4.8-2.9-9.8-5.1-16.6-5.1c-12.2,0-20.2,11-19.7,32.5h18V134.8z M2322.6,136.3
		c-50.6,0-83.9,38.7-83.9,90.3c0,49.4,30.2,88.1,81.1,88.1c50.7,0,84.8-34.1,84.8-90.8C2404.5,176,2375.6,136.3,2322.6,136.3z
		 M2321.9,167.3c26.9,0,41.5,26.6,41.5,57.8c0,33.6-15,58.6-41.5,58.6c-26.1,0-42-23.8-42-57.8
		C2279.9,192.4,2295.3,167.3,2321.9,167.3z"/>
	<path class="st1" d="M9,599.9c0,0-6.1-146.4,45-298.8c51.1-152.5,96-190.6,115.5-196.5c19.5-5.9,82,86.5,144.2,194.4V64.3
		c0,0-78.7-82.3-207.4,56.9L82.8,97.6c0,0,120.5-147.9,246.7-62.1c126.2-85.9,246.8,62.1,246.8,62.1l-23.7,23.5
		C423.9-18.1,345.2,64.3,345.2,64.3v234.9c62.1-107.9,124.7-200.3,144.2-194.4c19.5,5.9,64.4,44,115.5,196.5
		c51,152.4,45,298.8,45,298.8h-33.8c-6.3-305.2-107-435-118.6-450.2c-9.6-12.7-17.2-2.4-17.2-2.4S375.1,305.5,367,319.9
		c134.9,60.7,125,280,125,280h-39c0-49.7-4.5-87.1-4.5-87.1H210.3c0,0-4.5,37.4-4.5,87.1h-39c0,0-9.9-219.3,125-280
		c-8-14.5-113.1-172.7-113.1-172.7s-7.5-10.2-17.2,2.4C149.8,164.9,49.1,294.8,42.8,599.9H9 M329.4,340
		c-2.9,0.7-87.8,22.5-113.6,140.1H443C417.2,362.6,332.3,340.7,329.4,340z"/>
	<path class="st2" d="M835.5,511.4h16.7v-57.8c2.4,0.2,4.6,0.2,7.5,0.2c13.2,0,27-5.2,34.8-15.7c5.7-7.1,9-15.9,9-28.9
		c0-12.4-3.7-22.6-10.7-29.3c-7.6-7.2-19.3-10.2-32.8-10.2c-9.6,0-17.6,1-24.4,2.7L835.5,511.4 M852.3,383.9c2.2-0.6,5.5-1,9.4-1
		c18.9,0,25,13,25,27.5c0,20.1-11.2,30.4-27.6,30.4c-2.9,0-4.9-0.3-6.8-0.4V383.9z M964.9,469.1l9.6,42.3h16.6l-32.8-141.2h-18.6
		L906,511.4h16.5l9.6-42.3H964.9z M934.5,456.1l7.6-35.9c2.2-9.4,4.3-21.5,6.2-32.2c2.4,10.5,4.3,22.2,6.6,32.2l7.7,35.9H934.5z
		 M1005.8,510.8c4.8,1,11.8,1.5,18.5,1.5c17.2,0,31.1-4.8,40.7-15.1c9.4-9.9,17.8-27.5,17.8-59.7c0-29.6-8.6-47.8-20-57.2
		c-8.1-6.9-19.1-10.7-34.6-10.7c-8.3,0-16.2,0.8-22.5,2.7L1005.8,510.8L1005.8,510.8z M1022.4,383.6c2.2-0.6,5.3-0.9,7.9-0.9
		c23.7,0,35.1,19.5,35.1,55.1c0,47.9-17.9,60.9-36.6,60.9c-1.6,0-4,0-6.4-0.3L1022.4,383.6L1022.4,383.6z M1099.2,511.4h16.6v-61.4
		h6.6c14.5,0,20.8,7.1,24.1,26.6c2.9,17.2,5.6,30.6,7.9,34.8h17.1c-2.2-4.4-5-16.4-8.6-35.6c-3-18.4-8.8-28.5-19.8-31.5
		c15-7.2,23.7-18.9,23.7-36.9c0-11.1-3-20.5-10.3-27.6c-7.7-7.1-18.6-10-33.3-10c-8.3,0-17.1,0.8-24.1,2.7L1099.2,511.4
		L1099.2,511.4z M1115.8,383.5c2.2-0.7,5.5-0.9,8.9-0.9c17.9,0.2,25,10.3,25,26.6c0,16.9-10.7,28.3-26.7,28.3h-7.3L1115.8,383.5
		L1115.8,383.5z M1238.4,430.7h-37v-46.5h39.4v-14h-56.3v141.2h59v-14h-42.1v-53h37V430.7z M1304.5,471.8c0,22.4-7.2,27-19.1,27
		c-3.1,0-5.9-0.2-8.1-0.8l-1.6,13.4c2.9,1.3,6.8,1.6,11,1.6c21.2,0,34.6-9.9,34.6-41.5V370.3h-16.8L1304.5,471.8L1304.5,471.8z
		 M1379.5,368.5c-25.7,0-43.3,25.4-43.3,72.1c0,47.6,16.4,72.5,41,72.5c23.8,0,42.7-20.4,42.7-73.3
		C1419.8,394.8,1404.7,368.5,1379.5,368.5z M1378.2,382.8c19.1,0,24.2,31.3,24.2,57.6c0,27.6-5.1,58.4-23.9,58.4s-24.7-28.9-24.7-58
		C1353.6,412.1,1359.5,382.8,1378.2,382.8z M1428.9,506.7c4.2,2.9,14.6,6.1,24.7,6.1c23.7,0,41.4-15.3,41.4-39.6
		c0-15.7-7.9-28.7-25.7-40.6c-14-9.6-21.8-15.1-21.8-29.1c0-9.7,6.8-20.1,21.5-20.1c7.7,0,13.9,2.3,17.6,4.9l3.9-13.9
		c-3.5-2.5-11.4-5.3-20.5-5.3c-23.5,0-39,15.7-39,37.1c0,18.2,16,31.5,27.8,39.2c11.6,8.4,19.5,16.4,19.5,29.3
		c0,14.2-9.2,23.9-24.8,23.9c-7.2,0-16.2-2.5-21-5.7L1428.9,506.7z M1564.8,430.7h-37v-46.5h39.4v-14h-56.4v141.2h59v-14h-42v-53h37
		V430.7z M1614.9,511.4h16.6V457l8.4-13.6l30.2,68h18.2l-37.1-80.9l36.1-60.3h-18.6l-27.6,50c-2.8,5.5-5.6,11.2-9.1,17l-0.5-67.1
		H1615L1614.9,511.4L1614.9,511.4z M1753,430.7h-37v-46.5h39.4v-14h-56.3v141.2h58.9v-14h-42v-53h37V430.7z M1787.8,511.4v-48.8
		c0-30.2-0.4-48.2-1.7-67c5.7,17.6,12,33.7,18.1,47.9l28.1,67.9h15.8V370.3h-15.2v50.5c0,24.5,0.7,42.7,1.9,64.9
		c-5.5-15.3-13.1-34-19.2-49.2l-27.1-66.2h-15.9v141.2L1787.8,511.4L1787.8,511.4z M1887.7,511.4h16.8V384.7h27v-14.5h-70.8v14.5h27
		V511.4z M1997.7,430.7h-37v-46.5h39.4v-14h-56.3v141.2h58.9v-14h-42v-53h37V430.7z M2032.7,511.4v-48.8c0-30.2-0.4-48.2-1.7-67
		c5.7,17.6,12,33.7,18.2,47.9l28,67.9h15.8V370.3h-15.1v50.5c0,24.5,0.7,42.7,2,64.9c-5.5-15.3-13.2-34-19.3-49.2l-27.1-66.2h-15.8
		v141.2L2032.7,511.4L2032.7,511.4z M2115.1,511.4h16.9V370.3h-16.9V511.4z M2216.3,495.6c-3.5,1.5-8.9,2.9-15.3,2.9
		c-18.3,0-34.8-14.2-34.8-57.5c0-43.2,18.6-57.8,34.3-57.8c7.7,0,11.2,1.5,14.7,2.9l3.7-13.6c-2.9-1.9-9.4-3.6-18.2-3.6
		c-23.4,0-52.3,17.9-52.3,73.5c0,48,20.8,70.2,49.6,70.2c9.2,0,16.6-1.5,21.2-3.7L2216.3,495.6z M2232.3,370.3v141.2h16.8v-66h41.4
		v66h16.8V370.3h-16.8v60.5h-41.4v-60.5H2232.3z"/>
</g>
</svg>
