<?xml version="1.0" encoding="utf-8"?>
<!-- Generator: Adobe Illustrator 22.0.0, SVG Export Plug-In . SVG Version: 6.00 Build 0)  -->
<svg version="1.1" id="Layer_1" xmlns="http://www.w3.org/2000/svg" xmlns:xlink="http://www.w3.org/1999/xlink" x="0px" y="0px"
	 viewBox="0 0 1006.9 277.5" style="enable-background:new 0 0 1006.9 277.5;" xml:space="preserve">
<style type="text/css">
	.st0{fill-rule:evenodd;clip-rule:evenodd;fill:#2DAAE1;}
	.st1{fill-rule:evenodd;clip-rule:evenodd;fill:#FBC62E;}
	.st2{fill:#BED546;}
	.st3{fill-rule:evenodd;clip-rule:evenodd;fill:#F4964C;}
</style>
<g>
	<path class="st0" d="M376.3,111.2c-3,1.3-7.9,2.1-12.5,2.1c-13.1,0-20.9-8.3-20.9-21.4c0-14.6,9.2-21.7,20.8-21.7
		c5.4,0,9.6,1.2,12.5,2.4l3.1-11.7c-2.6-1.4-8.5-2.9-16.2-2.9c-19.9,0-35.8,12.4-35.8,34.7c0,18.7,11.7,32.9,34.4,32.9
		c7.9,0,14.1-1.6,16.7-2.9L376.3,111.2 M421.1,107.7l5.1,16.8h16L421.8,59h-19.5l-20,65.6h15.3l4.7-16.8H421.1z M404.4,96.7
		l3.9-13.9c1.1-3.8,2-8.8,3-12.6c1.2,3.9,2.3,8.7,3.5,12.6l4.1,13.9H404.4z M446.2,121.5c3.7,2,11.1,4.1,18.6,4.1
		c18,0,26.4-9.4,26.4-20.4c0-9.2-5.4-15.3-16.9-19.6c-8.6-3.2-12.2-5.1-12.2-9.3c0-3.3,3.1-6.3,9.5-6.3c6.3,0,11.1,1.9,13.6,3.1
		l3.3-11.9c-3.9-1.8-9.3-3.3-16.7-3.3c-15.4,0-24.8,8.5-24.8,19.6c0,9.5,7.2,15.6,18.1,19.5c7.9,2.7,11,5.1,11,9.2
		c0,4.3-3.6,7.1-10.4,7.1c-6.3,0-12.6-2.1-16.5-4.1L446.2,121.5z M531.2,107.7l5.1,16.8h16.1L531.9,59h-19.5l-20,65.6h15.3l4.7-16.8
		H531.2z M514.5,96.7l3.9-13.9c1.1-3.8,2.1-8.8,3-12.6c1.2,3.9,2.4,8.7,3.5,12.6l4.1,13.9H514.5z M576.2,124.3c3.6,0.5,9.2,1,16.8,1
		c12.9,0,23.5-2.7,30.4-8.5c6.2-5.4,10.8-14,10.8-26.6c0-11.6-4.3-19.7-11.1-24.7c-6.2-4.7-14.4-7-26.9-7c-7.4,0-14.5,0.6-20,1.4
		V124.3z M591,70.5c1.3-0.3,3.5-0.6,6.7-0.6c12.9,0,20.9,7.2,20.9,20.8c0,15.7-8.9,23.1-22.4,23c-1.7,0-3.9,0-5.2-0.3V70.5z
		 M679.9,84.8h-24.1V71.2h25.6V59h-40.4v65.6h41.8v-12.1h-27V96.9h24.1V84.8z M691.7,124.6h40.9v-12.4h-26.1V59h-14.8V124.6z
		 M768.3,124.6v-19.7c0-10.7-0.2-20-0.7-28.7c3.5,7.7,7.9,16.1,11.8,23.2l14,25.3H809V59h-13.6V78c0,10,0.3,18.8,1.2,27.5
		c-3.2-7.4-7-15.6-10.9-22.5L772,59h-17.3v65.6H768.3z M819.7,124.6h14.8V59h-14.8V124.6z M859.8,124.6v-19.7
		c0-10.7-0.2-20-0.7-28.7c3.5,7.7,7.9,16.1,11.8,23.2l14,25.3h15.6V59h-13.6V78c0,10,0.3,18.8,1.2,27.5c-3.2-7.4-7-15.6-10.9-22.5
		L863.5,59h-17.3v65.6H859.8z M866.7,57.2c0.2-2.8,1.1-4.2,2.4-4.2c1.4,0,2.4,0.8,4.2,1.7c1.7,1,3.8,1.9,6.3,1.9
		c5.2,0,7.9-3.4,7.7-12.2h-6.6c-0.4,3.3-1,4.2-2.6,4.2c-1.2,0-2.7-0.9-4.3-1.9c-1.8-1.1-3.7-1.9-6.3-1.9c-4.7,0-7.7,4.2-7.5,12.4
		H866.7z M941,57.8c-19.3,0-31.9,14.7-31.9,34.4c0,18.8,11.5,33.5,30.9,33.5c19.3,0,32.3-13,32.3-34.6
		C972.2,72.9,961.2,57.8,941,57.8z M940.7,69.6c10.2,0,15.8,10.1,15.8,22c0,12.8-5.7,22.3-15.8,22.3c-9.9,0-16-9.1-16-22
		C924.8,79.1,930.6,69.6,940.7,69.6z"/>
	<path class="st1" d="M318.6,145.9h662.3v18.8H318.6V145.9z"/>
	<path class="st2" d="M12.1,254.4c0,0-2.4-58.3,17.9-119.1c20.4-60.8,38.3-76,46-78.3c7.8-2.3,32.7,34.5,57.5,77.5V40.8
		c0,0-31.4-32.8-82.7,22.7l-9.4-9.4c0,0,48.1-59,98.4-24.7c50.3-34.2,98.4,24.7,98.4,24.7l-9.4,9.4C177.5,8,146.1,40.8,146.1,40.8
		v93.7c24.8-43,49.7-79.9,57.5-77.5c7.8,2.3,25.7,17.5,46,78.3c20.4,60.8,17.9,119.1,17.9,119.1h-13.5
		C251.6,132.8,211.5,81,206.8,74.9c-3.8-5.1-6.9-1-6.9-1s-41.9,63.1-45.1,68.9c53.8,24.2,49.8,111.6,49.8,111.6h-15.5
		c0-19.8-1.8-34.7-1.8-34.7H92.4c0,0-1.8,14.9-1.8,34.7H75c0,0-4-87.4,49.8-111.6c-3.3-5.8-45.1-68.9-45.1-68.9s-3-4.1-6.9,1
		c-4.7,6.1-44.8,57.9-47.3,179.5H12.1 M139.8,150.8c-1.2,0.3-35,9-45.3,55.9h90.6C174.8,159.8,141,151.1,139.8,150.8z"/>
	<path class="st3" d="M318.6,252.7h7.5v-26.1c1.1,0.1,2.1,0.1,3.3,0.1c5.9,0,12.1-2.3,15.7-7.1c2.6-3.2,4.1-7.2,4.1-13
		c0-5.6-1.7-10.2-4.9-13.2c-3.5-3.2-8.7-4.6-14.8-4.6c-4.4,0-7.9,0.5-11,1.2V252.7 M326.1,195.2c1-0.3,2.5-0.5,4.2-0.5
		c8.5,0,11.3,5.9,11.3,12.4c0,9.1-5,13.7-12.4,13.7c-1.3,0-2.2-0.1-3.1-0.2V195.2z M376.9,233.7l4.3,19.1h7.5l-14.8-63.6h-8.4
		l-15.2,63.6h7.4l4.3-19.1H376.9z M363.2,227.8l3.5-16.2c1-4.2,2-9.7,2.8-14.5c1.1,4.7,2,10,3,14.5l3.5,16.2H363.2z M395.3,252.4
		c2.2,0.5,5.3,0.7,8.4,0.7c7.7,0,14-2.2,18.4-6.8c4.3-4.4,8-12.4,8-26.9c0-13.3-3.9-21.5-9-25.8c-3.6-3.1-8.6-4.8-15.6-4.8
		c-3.7,0-7.3,0.4-10.2,1.2V252.4z M402.8,195.1c1-0.3,2.4-0.4,3.6-0.4c10.7,0,15.8,8.8,15.8,24.8c0,21.6-8.1,27.5-16.5,27.5
		c-0.7,0-1.8,0-2.9-0.2V195.1z M437.4,252.7h7.5v-27.7h3c6.5,0,9.4,3.2,10.9,12c1.3,7.7,2.6,13.8,3.6,15.7h7.7
		c-1-2-2.3-7.4-3.9-16.1c-1.4-8.3-4-12.8-8.9-14.2c6.7-3.2,10.7-8.5,10.7-16.6c0-5-1.4-9.2-4.6-12.5c-3.5-3.2-8.4-4.5-15-4.5
		c-3.8,0-7.7,0.4-10.9,1.2V252.7z M444.9,195c1-0.3,2.5-0.4,4-0.4c8.1,0.1,11.3,4.6,11.3,12c0,7.6-4.8,12.7-12,12.7h-3.3V195z
		 M500.1,216.4h-16.7v-21h17.8v-6.3h-25.4v63.6h26.6v-6.3h-19v-23.9h16.7V216.4z M529.9,234.9c0,10.1-3.3,12.2-8.6,12.2
		c-1.4,0-2.7-0.1-3.7-0.4l-0.7,6c1.3,0.6,3.1,0.8,5,0.8c9.6,0,15.6-4.4,15.6-18.7v-45.7h-7.6V234.9z M563.7,188.3
		c-11.5,0-19.5,11.4-19.5,32.5c0,21.4,7.4,32.7,18.5,32.7c10.7,0,19.3-9.2,19.3-33C581.9,200.1,575.1,188.3,563.7,188.3z
		 M563.1,194.7c8.6,0,10.9,14.1,10.9,26c0,12.5-2.3,26.3-10.8,26.3c-8.5,0-11.1-13-11.1-26.1C552.1,208,554.7,194.7,563.1,194.7z
		 M586,250.6c1.9,1.3,6.6,2.7,11.1,2.7c10.7,0,18.7-6.9,18.7-17.9c0-7.1-3.6-12.9-11.6-18.3c-6.3-4.3-9.8-6.8-9.8-13.1
		c0-4.4,3.1-9.1,9.7-9.1c3.5,0,6.2,1,7.9,2.2l1.8-6.2c-1.6-1.1-5.1-2.4-9.3-2.4c-10.6,0-17.6,7.1-17.6,16.7
		c0,8.2,7.2,14.2,12.6,17.7c5.2,3.8,8.8,7.4,8.8,13.2c0,6.4-4.2,10.8-11.2,10.8c-3.3,0-7.3-1.1-9.5-2.6L586,250.6z M647.2,216.4
		h-16.7v-21h17.8v-6.3h-25.4v63.6h26.6v-6.3h-19v-23.9h16.7V216.4z M669.8,252.7h7.5v-24.5l3.8-6.1l13.6,30.7h8.2l-16.7-36.5
		l16.3-27.2h-8.4l-12.4,22.5c-1.3,2.5-2.6,5-4.1,7.7l-0.2-30.2h-7.5V252.7z M732,216.4h-16.7v-21h17.8v-6.3h-25.4v63.6h26.6v-6.3
		h-19v-23.9H732V216.4z M747.8,252.7v-22c0-13.6-0.2-21.7-0.8-30.2c2.6,7.9,5.4,15.2,8.2,21.6l12.6,30.6h7.1v-63.6h-6.8v22.8
		c0,11,0.3,19.3,0.9,29.3c-2.4-6.9-5.9-15.3-8.7-22.2l-12.2-29.8h-7.1v63.6H747.8z M792.7,252.7h7.6v-57.1h12.2v-6.5h-31.9v6.5h12.1
		V252.7z M842.3,216.4h-16.7v-21h17.8v-6.3H818v63.6h26.6v-6.3h-19v-23.9h16.7V216.4z M858.1,252.7v-22c0-13.6-0.2-21.7-0.8-30.2
		c2.6,7.9,5.4,15.2,8.2,21.6l12.6,30.6h7.1v-63.6h-6.8v22.8c0,11,0.3,19.3,0.9,29.3c-2.5-6.9-5.9-15.3-8.7-22.2l-12.2-29.8h-7.1
		v63.6H858.1z M895.2,252.7h7.6v-63.6h-7.6V252.7z M940.9,245.5c-1.6,0.7-4,1.3-6.9,1.3c-8.2,0-15.7-6.4-15.7-25.9
		c0-19.5,8.4-26.1,15.5-26.1c3.5,0,5.1,0.7,6.6,1.3l1.7-6.1c-1.3-0.8-4.2-1.6-8.2-1.6c-10.5,0-23.6,8-23.6,33.1
		c0,21.6,9.4,31.6,22.3,31.6c4.2,0,7.5-0.7,9.6-1.7L940.9,245.5z M948.1,189.1v63.6h7.6V223h18.7v29.7h7.6v-63.6h-7.6v27.3h-18.7
		v-27.3H948.1z"/>
</g>
</svg>
